<svg xmlns="http://www.w3.org/2000/svg" xmlns:svg="http://www.w3.org/2000/svg" xmlns:xlink="http://www.w3.org/1999/xlink" id="Layer_1" x="0" y="0" version="1.1" viewBox="0 0 86 58" xml:space="preserve" style="enable-background:new 0 0 86 58"><g><path d="M4,952.4c-2.2,0-4,1.8-4,4v50c0,2.2,1.8,4,4,4h78c2.2,0,4-1.8,4-4v-50c0-2.2-1.8-4-4-4C82,952.4,4,952.4,4,952.4z M10.6,958.4h64.8L43,988.3C43,988.3,10.6,958.4,10.6,958.4z M6,962.3l20.2,18.6L6,1000.2L6,962.3L6,962.3z M80,962.3v38 l-20.2-19.4L80,962.3L80,962.3z M30.6,985l10.4,9.6c1.1,1.1,2.9,1.1,4.1,0l10.4-9.6l20.2,19.4H10.4L30.6,985z" transform="translate(0,-952.36218)"/></g></svg>